<svg xmlns="http://www.w3.org/2000/svg" xmlns:xlink="http://www.w3.org/1999/xlink" xml:space="preserve" version="1.1" style="shape-rendering:geometricPrecision;text-rendering:geometricPrecision;image-rendering:optimizeQuality;" viewBox="0 0 846.66 846.66" x="0px" y="0px" fill-rule="evenodd" clip-rule="evenodd"><defs><style type="text/css">
   
    .fil0 {fill:black}
   
  </style></defs><g><path class="fil0" d="M299.48 391.76c105.94,-150.9 159.82,-136.05 184.1,-118.85 24.79,17.56 28.93,51.66 23.76,69.23 -5.16,17.56 -64.04,259.34 -77.47,294.46 -13.43,35.13 14.47,37.97 35.39,19.37 7.55,-6.71 136.2,-158.92 70.52,-47.26 -9.22,15.67 -70.9,121.64 -122.62,140.36 -31.3,11.32 -70.76,14.22 -91.27,-15.14 -42.31,-60.6 78.43,-293.62 72.34,-363.38 -5.02,-57.63 -164.29,120.27 -94.75,21.21zm208.95 -302.21c31.1,0 56.31,37.24 56.31,83.17 0,45.94 -25.21,83.17 -56.31,83.17 -31.1,0 -56.31,-37.23 -56.31,-83.17 0,-45.93 25.21,-83.17 56.31,-83.17z"></path></g></svg>