<svg xmlns="http://www.w3.org/2000/svg" viewBox="0 0 12 7" fill="none" x="0px" y="0px"><path d="M6.8535 4.6445C6.76169 4.73866 6.71067 4.86519 6.71149 4.9967C6.71231 5.12821 6.76492 5.2541 6.8579 5.3471C6.95089 5.4401 7.07677 5.49272 7.20828 5.49356C7.33979 5.4944 7.46633 5.4434 7.5605 5.3516L9.5747 3.3389L9.2222 2.9865L9.22 2.9844L7.5605 1.3262C7.4662 1.23512 7.3399 1.18472 7.2088 1.18586C7.0777 1.187 6.95229 1.23959 6.85959 1.33229C6.76689 1.425 6.7143 1.5504 6.71316 1.6815C6.71202 1.8126 6.76242 1.9389 6.8535 2.0332L7.6598 2.8389H0.5C0.367392 2.8389 0.240215 2.89158 0.146447 2.98535C0.0526784 3.07911 0 3.20629 0 3.3389C0 3.47151 0.0526784 3.59869 0.146447 3.69245C0.240215 3.78622 0.367392 3.8389 0.5 3.8389H7.66L6.8535 4.6445Z" fill="black"></path><path d="M11.1768 6.1777V0.5C11.1768 0.367392 11.1241 0.240215 11.0304 0.146447C10.9366 0.0526784 10.8094 0 10.6768 0C10.5442 0 10.417 0.0526784 10.3233 0.146447C10.2295 0.240215 10.1768 0.367392 10.1768 0.5V6.1777C10.1768 6.31031 10.2295 6.43749 10.3233 6.53125C10.417 6.62502 10.5442 6.6777 10.6768 6.6777C10.8094 6.6777 10.9366 6.62502 11.0304 6.53125C11.1241 6.43749 11.1768 6.31031 11.1768 6.1777Z" fill="black"></path></svg>