<svg xmlns="http://www.w3.org/2000/svg" data-name="Layer 1" viewBox="0 0 100 100" x="0px" y="0px"><title>Artboard 46</title><path d="M80.54,50a17,17,0,1,0,17,17A17,17,0,0,0,80.54,50Zm3.39,27.14H77.14V56.79h6.79Z"></path><path d="M16.07,36.43H50v6.78L63.57,29.64,50,16.07v6.79H9.29A6.78,6.78,0,0,0,2.5,29.64V70.36a6.78,6.78,0,0,0,6.79,6.78H29.64V63.57H16.07Z"></path><path d="M97.5,50.4V29.64a6.78,6.78,0,0,0-6.79-6.78H70.36V36.43H83.93v7.13A23.63,23.63,0,0,1,97.5,50.4Z"></path><path d="M57.13,63.57H50V56.79L36.43,70.36,50,83.93V77.14h9.17A23.48,23.48,0,0,1,56.79,67,22.38,22.38,0,0,1,57.13,63.57Z"></path></svg>