<svg xmlns="http://www.w3.org/2000/svg" xmlns:xlink="http://www.w3.org/1999/xlink" viewBox="0 0 24 24" version="1.1" x="0px" y="0px"><title>24pt_player_sound_on</title><desc>Created with Sketch.</desc><g stroke="none" stroke-width="1" fill="none" fill-rule="evenodd"><g transform="translate(-300.000000, -311.000000)" fill-rule="nonzero" fill="#000000"><g transform="translate(300.000000, 311.000000)"><path d="M7,9.00028008 L5.00591905,9 C4.44283633,9 4,9.44286817 4,9.99810135 L4,14.0018986 C4,14.5567997 4.44614885,15 5.00591905,15 L7,14.9997233 L7,9.00028008 Z M9,8.52142814 L9,15.4791611 L14,19.0049107 L14,5 L9,8.52142814 Z M12.7952267,3.3459345 C14.3538049,2.23266429 16,3.07931909 16,4.99508929 L16,19.0049107 C16,20.9209255 14.3572384,21.7697882 12.795226,20.654065 L7.67954398,17 L5.00591905,17 C3.34453709,17 2,15.6643487 2,14.0018986 L2,9.99810135 C2,8.33833084 3.33823465,7 5.00591905,7 L7.67953367,7.00000091 L12.7952267,3.3459345 Z M17,7.10001812 C19.2822403,7.56328845 21,9.58104209 21,12 C21,14.4189579 19.2822403,16.4367116 17,16.8999819 L17,14.8292943 C18.1651924,14.4174579 19,13.3062188 19,12 C19,10.6937812 18.1651924,9.58254212 17,9.17070571 L17,7.10001812 Z"></path></g></g></g></svg>