<svg xmlns="http://www.w3.org/2000/svg" xmlns:xlink="http://www.w3.org/1999/xlink" viewBox="0 0 24 24" version="1.1" x="0px" y="0px"><title>24pt_player_sound_off</title><desc>Created with Sketch.</desc><g stroke="none" stroke-width="1" fill="none" fill-rule="evenodd"><g transform="translate(-350.000000, -311.000000)" fill-rule="nonzero" fill="#000000"><g transform="translate(350.000000, 311.000000)"><path d="M14,16.4849243 L9,11.4849243 L9,15.4791611 L14,19.0049107 L14,16.4849243 L14,16.4849243 Z M4.54911565,7.03403999 L2.72976005,5.21468439 C2.31970952,4.80463386 2.31970952,4.13981059 2.72976005,3.72976005 C3.13981059,3.31970952 3.80463386,3.31970952 4.21468439,3.72976005 L20.2702399,19.7853156 C20.6802905,20.1953661 20.6802905,20.8601894 20.2702399,21.2702399 C19.8601894,21.6802905 19.1953661,21.6802905 18.7853156,21.2702399 L16,18.4849243 L16,19.0049107 C16,20.9209255 14.3572384,21.7697882 12.795226,20.654065 L7.67954398,17 L5.00591905,17 C3.34453709,17 2,15.6643487 2,14.0018986 L2,9.99810135 C2,8.49299394 3.10045217,7.25221161 4.54911565,7.03403999 L4.54911565,7.03403999 Z M6.51528766,9.000212 L5.00591905,9 C4.44283633,9 4,9.44286817 4,9.99810135 L4,14.0018986 C4,14.5567997 4.44614885,15 5.00591905,15 L7,14.9997233 L7,9.48492434 L6.51528766,9.000212 L6.51528766,9.000212 Z M10.6092319,7.38806928 L9.16215106,5.94098849 L12.7952267,3.3459345 C14.3538049,2.23266429 16,3.07931909 16,4.99508929 L16,12.7788374 L14,10.7788374 L14,5 L10.6092319,7.38806928 L10.6092319,7.38806928 Z M19.1247332,15.9035707 L17.6960552,14.4748926 C18.4835317,13.934196 19,13.0274118 19,12 C19,10.6937812 18.1651924,9.58254212 17,9.17070571 L17,7.10001812 C19.2822403,7.56328845 21,9.58104209 21,12 C21,13.5791132 20.2679642,14.9872503 19.1247332,15.9035707 L19.1247332,15.9035707 Z"></path></g></g></g></svg>